<svg width="295" height="76" viewBox="0 0 295 76" fill="none" xmlns="http://www.w3.org/2000/svg">
<g clip-path="url(#clip0_15_59)">
<path fill-rule="evenodd" clip-rule="evenodd" d="M5.27854 0C8.16661 0 10.5137 2.30266 10.566 5.17899V27.4393C14.9971 24.1198 20.4887 22.1548 26.433 22.1548C36.5565 22.1548 45.3556 27.8419 49.7904 36.192C54.224 27.8419 63.0274 22.1548 73.1439 22.1548C87.7394 22.1548 99.5797 33.9811 99.5797 48.5726C99.5797 63.1709 87.7394 75 73.1439 75C63.0274 75 54.224 69.3077 49.7904 60.9655C45.3556 69.3077 36.5565 75 26.433 75C11.9736 75 0.238646 63.4057 0.00585067 49.013H0V5.17899C0.066205 2.30266 2.39046 0 5.27854 0ZM131.417 24.5448C133.363 22.2856 136.89 21.839 139.405 23.5809C141.916 25.3084 142.437 28.5592 140.618 30.8878L126.231 48.5381L140.601 66.1544C142.423 68.4893 141.899 71.731 139.388 73.4652C136.874 75.2 133.347 74.7584 131.4 72.4958L119.04 57.3552L106.673 72.4958C104.748 74.7584 101.198 75.2 98.6916 73.4652C96.185 71.731 95.6612 68.4893 97.4891 66.1544H97.4842L111.845 48.5381L97.4842 30.8878H97.4891C95.6612 28.5592 96.185 25.3099 98.6916 23.5809C101.198 21.839 104.748 22.2856 106.673 24.5448V24.5411L119.04 39.7026L131.417 24.5411V24.5448ZM73.1439 32.7328C64.3832 32.7328 57.2799 39.8242 57.2799 48.5726C57.2799 57.3284 64.3832 64.4214 73.1439 64.4214C81.9008 64.4214 89.0004 57.3284 89.0004 48.5726C89.0004 39.8242 81.9008 32.7328 73.1439 32.7328ZM26.433 32.7328C17.6743 32.7328 10.566 39.8242 10.566 48.576C10.566 57.3302 17.6743 64.4214 26.433 64.4214C35.1909 64.4214 42.2843 57.3284 42.2843 48.5726C42.2843 39.8242 35.1909 32.7328 26.433 32.7328Z" fill="white"/>
<path d="M196.33 48.545C196.33 52.4358 195.714 55.9762 194.481 59.1662C193.249 62.3562 191.509 65.0871 189.261 67.3587C187.014 69.6304 184.319 71.3946 181.178 72.6512C178.036 73.8837 174.556 74.5 170.738 74.5H151.308V22.5537H170.738C174.556 22.5537 178.036 23.1821 181.178 24.4387C184.319 25.6712 187.014 27.4354 189.261 29.7312C191.509 32.0029 193.249 34.7337 194.481 37.9237C195.714 41.1137 196.33 44.6542 196.33 48.545ZM189.116 48.545C189.116 45.355 188.681 42.5033 187.811 39.99C186.941 37.4767 185.709 35.35 184.114 33.61C182.519 31.87 180.585 30.5408 178.314 29.6225C176.042 28.7042 173.517 28.245 170.738 28.245H158.376V68.8087H170.738C173.517 68.8087 176.042 68.3496 178.314 67.4312C180.585 66.5129 182.519 65.1958 184.114 63.48C185.709 61.74 186.941 59.6133 187.811 57.1C188.681 54.5867 189.116 51.735 189.116 48.545ZM238.504 22.5537V28.2812H213.564V45.5362H233.755V51.0462H213.564V68.7725H238.504V74.5H206.495V22.5537H238.504ZM243.204 22.5537H248.823C249.451 22.5537 249.958 22.7108 250.345 23.025C250.732 23.3392 251.022 23.7379 251.215 24.2212L265.896 60.87C266.235 61.6917 266.537 62.5858 266.803 63.5525C267.093 64.5192 267.371 65.5221 267.636 66.5612C267.854 65.5221 268.083 64.5192 268.325 63.5525C268.591 62.5858 268.893 61.6917 269.231 60.87L283.84 24.2212C284.009 23.8104 284.299 23.4358 284.71 23.0975C285.121 22.735 285.628 22.5537 286.233 22.5537H291.888L270.718 74.5H264.374L243.204 22.5537Z" fill="white"/>
</g>
<defs>
<clipPath id="clip0_15_59">
<rect width="295" height="75.5" fill="white"/>
</clipPath>
</defs>
</svg>
